<svg id="Groupe_391" data-name="Groupe 391" xmlns="http://www.w3.org/2000/svg" width="272.724" height="505.952" viewBox="0 0 272.724 505.952">
  <g id="Groupe_336" data-name="Groupe 336">
    <g id="Groupe_335" data-name="Groupe 335">
      <g id="Groupe_334" data-name="Groupe 334">
        <path id="Tracé_520" data-name="Tracé 520" d="M8716.278,1023.554c8.94-11.552,17.516-23.73,25.51-36.2,7.708-12.056,5.268-30.829-.354-36.23-1.924-1.846-3.98-1.953-6.315-.332-17.656,12.306-35.344,25.306-52.554,38.628a6.414,6.414,0,0,1-8.641-9.41c18.058-19.64,35.295-40.34,51.232-61.521,3.306-4.4-.1-20.4-7.545-28.963-4.354-5-8.961-6.222-13.642-3.605-26.5,14.734-52.819,30.579-78.214,47.114a5.234,5.234,0,0,1-6.121-8.476,814.618,814.618,0,0,0,70.6-63.372c6.854-6.915,2.956-20.94-4.187-30.635-5.808-7.869-15.719-15.443-24.577-10.812-29.137,15.182-58.187,31.747-86.33,49.24a5.645,5.645,0,0,1-6.581-9.139,821.845,821.845,0,0,0,81.785-77.887,818.972,818.972,0,0,0,70.546-88.862c5.689-8.308,2.6-16.529-1.764-21.048a16.8,16.8,0,0,0-11.872-5.228,16.522,16.522,0,0,0-8.964,2.775c-31.86,20.288-63.223,42.238-93.214,65.223-27.043,20.691-53.489,42.61-78.622,65.167-22.875,20.517-50.545,53.866-52.437,96.257-1.512,33.762,20.233,53.6,51.627,87.265,44.839,48.093,79.786,85.838,117.148,84.2C8669.935,1066.429,8694.655,1051.578,8716.278,1023.554Z" transform="translate(-8473.94 -561.798)" fill="#1e5439"/>
        <path id="Tracé_521" data-name="Tracé 521" d="M8509.748,772.439a4.129,4.129,0,0,0,5.5,1.678,192.13,192.13,0,0,0,63.88-52.422,4.118,4.118,0,0,0-.568-5.707,503.064,503.064,0,0,0-66.124-45.553,24.758,24.758,0,0,0-12.481-3.483,25.345,25.345,0,0,0-16.484,6.37,25.061,25.061,0,0,0-6.766,28.774C8486.536,725.948,8497.652,749.616,8509.748,772.439Z" transform="translate(-8470.683 -561.224)" fill="#1e5439"/>
        <path id="Tracé_522" data-name="Tracé 522" d="M8524.013,651.728a11.747,11.747,0,0,0-19.9,0,49.854,49.854,0,0,0,0,52.626,11.735,11.735,0,0,0,19.9,0,49.906,49.906,0,0,0,.007-52.617Z" transform="translate(-8381.033 -646.22)" fill="#e2a9f8"/>
        <path id="Tracé_523" data-name="Tracé 523" d="M8533.5,690.921a49.889,49.889,0,0,0-36.378-39.815,11.489,11.489,0,0,0-2.863-.373,11.334,11.334,0,0,0-11.149,13.138,49.922,49.922,0,0,0,36.17,39.963,11.054,11.054,0,0,0,2.948.393h0a11.469,11.469,0,0,0,11.272-13.306Z" transform="translate(-8436.96 -627.717)" fill="#8bc8f3"/>
        <path id="Tracé_524" data-name="Tracé 524" d="M8554.136,653.686a11.3,11.3,0,0,0-7.593-2.953,11.476,11.476,0,0,0-2.883.378,49.866,49.866,0,0,0-36.358,39.81,11.474,11.474,0,0,0,11.276,13.311h0a11.147,11.147,0,0,0,2.945-.393,49.951,49.951,0,0,0,36.174-39.974A11.258,11.258,0,0,0,8554.136,653.686Z" transform="translate(-8337.802 -627.717)" fill="#e8c327"/>
      </g>
    </g>
  </g>
</svg>
